<?xml version="1.0" encoding="utf-8"?>
<!-- Generator: Adobe Illustrator 26.0.0, SVG Export Plug-In . SVG Version: 6.00 Build 0)  -->
<svg version="1.1" id="Слой_1" xmlns="http://www.w3.org/2000/svg" xmlns:xlink="http://www.w3.org/1999/xlink" x="0px" y="0px"
	 viewBox="0 0 27 27" style="enable-background:new 0 0 27 27;" xml:space="preserve">
<style type="text/css">
	.st0{fill:#FFFFFF;}
	.st1{fill:#6E9C9F;}
</style>
<rect y="0" class="st0" width="27" height="27"/>
<g>
	<path class="st1" d="M8.3,7.8c-1.5,1.5-1.5,3.9,0,5.4l0.8-0.8C8,11.4,8,9.7,9.1,8.6c1.1-1.1,2.8-1.1,3.9,0l0.8-0.8
		C12.2,6.3,9.8,6.3,8.3,7.8z"/>
	<path class="st1" d="M9.8,9.4c-0.6,0.6-0.6,1.7,0,2.3l0.8-0.8c-0.1-0.1-0.1-0.2-0.1-0.3c0-0.1,0.1-0.3,0.1-0.3
		c0.1-0.1,0.2-0.1,0.3-0.1c0.1,0,0.3,0.1,0.3,0.1l0.8-0.8C11.5,8.8,10.5,8.8,9.8,9.4z"/>
	<path class="st1" d="M19.7,7.4l-1.9-1.9l-3.9,3.9l1.5,1.6c-0.3,0.5-0.8,1.3-1.8,2.3c-0.9,0.9-1.8,1.5-2.3,1.8l-1.5-1.5L6,17.4
		l1.9,1.9c0.7,0.7,1.8,0.9,2.7,0.5c1.4-0.7,3.5-1.9,5.6-4c2.1-2.1,3.3-4.2,4-5.6c0.2-0.3,0.2-0.7,0.2-1C20.4,8.5,20.2,7.9,19.7,7.4z
		 M19.2,9.7c-0.6,1.3-1.8,3.3-3.8,5.3c-2,2-4,3.2-5.3,3.8c-0.5,0.2-1.1,0.1-1.4-0.2l-1.1-1.1l2.3-2.3l1.3,1.3l0.4-0.2
		c0.1,0,1.4-0.6,2.9-2.2c1.5-1.5,2.1-2.9,2.2-2.9l0.2-0.3l-1.3-1.3l2.3-2.3L19,8.2C19.3,8.6,19.4,9.2,19.2,9.7z"/>
</g>
</svg>
